Coordinates
version=1
nRows=32
nColumns=12
inDegrees=yes

Units are S.I. units (second, meters, Newtons, ...)
Angles are in degrees

endheader
time	SC_y	SC_z	SC_x	AC_y	AC_z	AC_x	GH_y	GH_z	GH_yy	EL_x	PS_y
       0.0              -56.27          25.14          20.16          60.34         -18.68          9.262         -46.17          8.453         -128.8          28.79          85.28
   0.03681              -56.26          25.14          20.17          60.34         -18.68           9.26         -46.15          8.456         -128.8           28.8          85.29
   0.07362              -56.26          25.14          20.17          60.34         -18.68          9.258         -46.13          8.461         -128.8          28.81          85.29
    0.1104              -56.25          25.13          20.18          60.34         -18.68          9.257         -46.11          8.465         -128.8          28.82           85.3
    0.1472              -56.24          25.13          20.18          60.33         -18.67          9.255         -46.09           8.47         -128.8          28.83          85.31
    0.1841              -56.23          25.13          20.19          60.33         -18.67          9.252         -46.06          8.475         -128.8          28.85          85.33
    0.2209              -56.22          25.13          20.19          60.33         -18.67           9.25         -46.03           8.48         -128.8          28.86          85.34
    0.2577              -56.21          25.12           20.2          60.32         -18.67          9.248          -46.0          8.486         -128.8          28.88          85.35
    0.2945               -56.2          25.12          20.21          60.32         -18.67          9.245         -45.97          8.492         -128.8          28.89          85.36
    0.3313              -56.19          25.11          20.22          60.32         -18.67          9.242         -45.94          8.499         -128.7          28.91          85.38
    0.3681              -56.18          25.11          20.22          60.31         -18.67          9.239          -45.9          8.506         -128.7          28.93          85.39
    0.4049              -56.17          25.11          20.23          60.31         -18.66          9.236         -45.87          8.514         -128.7          28.95          85.41
    0.4417              -56.16           25.1          20.24           60.3         -18.66          9.233         -45.82          8.522         -128.7          28.97          85.43
    0.4786              -56.14           25.1          20.25           60.3         -18.66          9.229         -45.78          8.531         -128.7           29.0          85.45
    0.5154              -56.13          25.09          20.26          60.29         -18.66          9.225         -45.73          8.541         -128.7          29.02          85.47
    0.5522              -56.11          25.08          20.28          60.29         -18.66           9.22         -45.68          8.551         -128.7          29.05          85.49
     0.589              -56.09          25.08          20.29          60.28         -18.65          9.216         -45.62          8.563         -128.7          29.08          85.52
    0.6258              -56.07          25.07           20.3          60.27         -18.65           9.21         -45.56          8.575         -128.7          29.12          85.55
    0.6626              -56.05          25.06          20.32          60.27         -18.65          9.205         -45.49          8.589         -128.7          29.15          85.58
    0.6994              -56.03          25.05          20.34          60.26         -18.64          9.198         -45.42          8.603         -128.7          29.19          85.61
    0.7362               -56.0          25.04          20.36          60.25         -18.64          9.192         -45.34           8.62         -128.7          29.24          85.64
    0.7731              -55.97          25.03          20.38          60.24         -18.63          9.184         -45.25          8.638         -128.7          29.29          85.68
    0.8099              -55.94          25.02           20.4          60.23         -18.63          9.176         -45.15          8.657         -128.7          29.34          85.73
    0.8467              -55.91          25.01          20.43          60.22         -18.62          9.167         -45.04          8.679         -128.7           29.4          85.78
    0.8835              -55.87           25.0          20.45           60.2         -18.62          9.156         -44.91          8.704         -128.7          29.47          85.83
    0.9203              -55.83          24.98          20.49          60.19         -18.61          9.145         -44.78          8.731         -128.7          29.54          85.89
    0.9571              -55.78          24.96          20.52          60.17         -18.61          9.132         -44.63          8.762         -128.7          29.62          85.96
    0.9939              -55.72          24.94          20.56          60.15          -18.6          9.118         -44.45          8.796         -128.6          29.71          86.03
     1.031              -55.66          24.92          20.61          60.13         -18.59          9.101         -44.26          8.835         -128.6          29.82          86.12
     1.068              -55.59           24.9          20.66          60.11         -18.58          9.083         -44.04          8.879         -128.6          29.94          86.21
     1.104              -55.51          24.87          20.72          60.08         -18.56          9.062         -43.79          8.929         -128.6          30.07          86.33
     1.141              -55.42          24.83          20.78          60.05         -18.55          9.038          -43.5          8.987         -128.6          30.23          86.45
